# xmcd
#
# Track frame offsets:
#	150
#	6985
#	24468
#	39722
#	55802
#	71773
#	72611
#	80042
#	97927
#	116194
#	131898
#	149440
#	151579
#	178596
#	179360
#	183282
#	196827
#	215868
#	234433
#	234950
#	250664
#	261122
#	276387
#	281204
#	303146
#	315878
#	317053
#	334640
#
# Disc length: 4475 seconds
#
# Revision: 1
# Processed by: cddbd v1.5.2PL0 Copyright (c) Steve Scherf et al.
# Submitted via: audiograbber 1.83.01
#
DISCID=9a11791c
DTITLE=Method Man  - -Judgement Day
DYEAR=1998
DGENRE=Rap
TTITLE0=Judgment Day (Intro)
TTITLE1=Perfect World 
TTITLE2=Cradle Rock (feat. Left Eye)
TTITLE3=Dangerous Grounds (feat. Streetlife)
TTITLE4=Sweet Love (Skit)
TTITLE5=Sweet Love (feat. Cappadonna und Streetlife)
TTITLE6=Shaolin What (Skit)
TTITLE7=Torture
TTITLE8=Where's Method Man? (Skit) (feat. Ed Lover)
TTITLE9=Suspect Chin Music (feat. Streetlife)
TTITLE10=Retro Godfather
TTITLE11=Dooney Boy
TTITLE12=Spazzola (feat. Streetlife, Raekwon, Masta Killa, Killer Sin und Inspe
TTITLE12=ctah Deck)
TTITLE13=Check Writer (Skit)
TTITLE14=You Play Too Much (mit Chris Rock)
TTITLE15=Party Crasher 
TTITLE16=Grid Iron Rap (feat. Streetlife)
TTITLE17=Step By Step
TTITLE18=Play IV Keeps (feat. Inspectah Deck, Streetlife und Mobb Deep)
TTITLE19=Donald Trump (Skit)
TTITLE20=Snuffed Out (Skit) (feat. Streetlife)
TTITLE21=Elements (feat. Star und Polite)
TTITLE22=Killin' Fields
TTITLE23=Big Dogs (feat. Redman)
TTITLE24=Break Ups 2 Make Ups (feat. D'Angelo)
TTITLE25=Message From Penny (Skit)
TTITLE26=Judgement Day
TTITLE27=C.E.O.utro
EXTD=
EXTT0=
EXTT1=
EXTT2=
EXTT3=
EXTT4=
EXTT5=
EXTT6=
EXTT7=
EXTT8=
EXTT9=
EXTT10=
EXTT11=
EXTT12=
EXTT13=
EXTT14=
EXTT15=
EXTT16=
EXTT17=
EXTT18=
EXTT19=
EXTT20=
EXTT21=
EXTT22=
EXTT23=
EXTT24=
EXTT25=
EXTT26=
EXTT27=
PLAYORDER=
